<svg height="511pt" viewBox="0 0 511.99912 511" width="511pt" xmlns="http://www.w3.org/2000/svg"><path d="m437.019531 75.480469c-48.351562-48.351563-112.640625-74.980469-181.019531-74.980469s-132.667969 26.628906-181.019531 74.980469c-48.351563 48.351562-74.97656275 112.640625-74.97656275 181.019531 0 51.359375 15.02343775 100.554688 43.54687475 142.847656l-42.183593 91.890625c-2.617188 5.703125-1.4101568 12.429688 3.027343 16.867188 2.875 2.875 6.710938 4.394531 10.609375 4.390625 2.113282 0 4.246094-.445313 6.253906-1.367188l91.894532-42.179687c42.292968 28.519531 91.488281 43.546875 142.847656 43.546875 68.378906 0 132.667969-26.625 181.019531-74.976563 48.351563-48.355469 74.980469-112.640625 74.980469-181.023437 0-68.375-26.628906-132.664063-74.980469-181.015625zm0 0" fill="#0065a3"/><path d="m437.019531 75.480469c-48.351562-48.351563-112.640625-74.980469-181.019531-74.980469v511.996094c68.378906 0 132.667969-26.625 181.019531-74.976563 48.351563-48.355469 74.980469-112.640625 74.980469-181.023437 0-68.375-26.628906-132.664063-74.980469-181.015625zm0 0" fill="#005183"/><path d="m336.332031 175.097656c8.285157 0 15-6.714844 15-15v-64.265625c0-8.285156-6.714843-15-15-15h-88.363281c-30.417969 0-55.167969 24.75-55.167969 55.167969v73.367188h-49.265625c-8.285156 0-15 6.714843-15 15v64.265624c0 8.285157 6.714844 15 15 15h49.265625v113.53125c0 8.285157 6.714844 15 15 15h64.265625c8.285156 0 15-6.714843 15-15v-113.53125h49.265625c8.285157 0 15-6.714843 15-15v-64.265624c0-8.285157-6.714843-15-15-15h-49.265625v-34.269532zm0 0" fill="#fef4f5"/><path d="m336.332031 175.097656c8.285157 0 15-6.714844 15-15v-64.265625c0-8.285156-6.714843-15-15-15h-80.332031v351.332031h16.066406c8.285156 0 15-6.714843 15-15v-113.53125h49.265625c8.285157 0 15-6.714843 15-15v-64.265624c0-8.285157-6.714843-15-15-15h-49.265625v-34.269532zm0 0" fill="#d5eded"/></svg>